<svg width="386" height="386" xmlns="http://www.w3.org/2000/svg" xmlns:xlink="http://www.w3.org/1999/xlink" overflow="hidden"><defs><clipPath id="clip0"><rect x="-1" y="-1" width="386" height="386"/></clipPath></defs><g clip-path="url(#clip0)" transform="translate(1 1)"><rect x="0" y="0" width="384" height="384" fill="#FFFFFF" fill-opacity="0"/><path d="M295 23.5C295 10.5213 305.745 0 319 0 332.255-5.98373e-15 343 10.5213 343 23.5 343 36.4787 332.255 47 319 47 305.745 47 295 36.4787 295 23.5Z" fill="#2D5A19" fill-rule="evenodd"/><path d="M290 111.5C290 94.103 304.103 80 321.5 80 338.897 80 353 94.103 353 111.5 353 128.897 338.897 143 321.5 143 304.103 143 290 128.897 290 111.5Z" fill="#2D5A19" fill-rule="evenodd"/><path d="M248 60.5C248 51.3873 255.163 44 264 44 272.837 44 280 51.3873 280 60.5 280 69.6127 272.837 77 264 77 255.163 77 248 69.6127 248 60.5Z" fill="#2D5A19" fill-rule="evenodd"/><path d="M317.633 188.137C310.427 191.478 302.576 193.215 294.497 193.217 284.906 193.218 275.425 190.67 267.076 185.848 251.491 176.848 241.444 160.762 239.831 143.182 222.163 141.568 206.126 131.434 197.176 115.928 188.18 100.344 187.517 81.3936 194.904 65.3651 183.596 57.4196 175.714 45.5259 172.821 32 134.336 33.2352 99.0022 47.1386 70.834 69.6549 78.2147 76.8112 82.5839 86.7534 82.5839 97.4775 82.5839 111.203 75.4108 123.276 64.6225 130.168 58.6068 134.011 51.4724 136.25 43.8203 136.25 38.4294 136.25 33.1713 135.132 28.3333 133.02 28.3093 133.045 28.2853 133.069 28.2612 133.094 26.4504 138.115 24.8713 143.246 23.521 148.469 19.9253 162.384 18 176.966 18 191.992 18 287.94 96.0432 366 191.97 366 229.914 366 265.049 353.775 293.671 333.072 294.275 332.53 295.049 331.96 295.948 331.371 306.668 323.351 316.453 314.147 325.066 303.917 315.087 296.774 308.767 285.083 308.767 272.352 308.767 263.905 311.49 256.087 316.093 249.711 322.866 240.328 333.725 234.095 346.041 233.625 346.524 233.598 347.017 233.58 347.532 233.58 347.905 233.58 348.276 233.593 348.648 233.604 349.945 225.965 350.745 218.16 351 210.218 337.474 207.328 325.58 199.445 317.633 188.137ZM121.771 308.654C109.687 308.654 98.8795 303.092 91.7644 294.396 86.0283 287.634 82.5572 278.892 82.5572 269.35 82.5572 247.971 99.9463 230.578 121.321 230.578 133.405 230.578 144.214 236.14 151.328 244.836 157.064 251.598 160.535 260.34 160.535 269.882 160.535 291.261 143.147 308.654 121.771 308.654ZM147.391 169.09C135.307 169.09 124.499 163.528 117.384 154.832 111.648 148.07 108.177 139.328 108.177 129.787 108.177 108.407 125.566 91.0146 146.941 91.0146 159.025 91.0146 169.833 96.5765 176.948 105.272 182.684 112.035 186.155 120.777 186.155 130.318 186.155 151.696 168.767 169.09 147.391 169.09ZM227.474 290.157C211.956 290.157 198.074 283.024 188.926 271.866 181.607 263.187 177.185 251.99 177.185 239.775 177.185 212.288 199.543 189.926 227.024 189.926 242.542 189.926 256.424 197.059 265.572 208.218 272.89 216.896 277.313 228.093 277.313 240.308 277.313 267.795 254.955 290.157 227.474 290.157Z" fill="#5A7E4A" fill-rule="evenodd"/><path d="M176.896 105C182.304 111.704 185.555 120.265 185.555 129.584 185.555 151.024 168.36 168.467 147.225 168.467 135.524 168.467 125.036 163.114 118 154.701 125.034 163.422 135.722 169 147.671 169 168.806 169 186 151.557 186 130.117 186 120.548 182.569 111.781 176.896 105Z" fill="#2D5A19" fill-rule="evenodd"/><path d="M160.548 269.2C160.548 290.305 143.101 307.475 121.655 307.475 109.782 307.475 99.1396 302.206 92 293.925 99.1387 302.509 109.982 308 122.107 308 143.553 308 161 290.83 161 269.725 161 260.305 157.517 251.675 151.762 245 157.249 251.6 160.548 260.027 160.548 269.2Z" fill="#2D5A19" fill-rule="evenodd"/><path d="M276.552 239.581C276.552 267.088 254.291 289.467 226.931 289.467 211.73 289.467 198.11 282.552 189 271.694 198.107 282.861 211.928 290 227.38 290 254.74 290 277 267.621 277 240.114 277 227.89 272.597 216.685 265.311 208 272.331 216.607 276.552 227.606 276.552 239.581Z" fill="#2D5A19" fill-rule="evenodd"/><path d="M147 169C168.505 169 186 151.505 186 130 186 120.653 182.693 112.067 177.19 105.342 170.032 96.5947 159.159 91 147 91 125.495 91 108 108.495 108 130 108 139.599 111.492 148.391 117.263 155.193 124.424 163.631 135.094 169 147 169ZM147 109.571C158.265 109.571 167.429 118.736 167.429 130 167.429 141.265 158.265 150.429 147 150.429 135.736 150.429 126.571 141.265 126.571 130 126.571 118.736 135.736 109.571 147 109.571Z" fill="#2D5A19" fill-rule="evenodd"/><path d="M121.5 308C142.729 308 160 290.505 160 269 160 259.653 156.735 251.067 151.303 244.342 144.237 235.595 133.502 230 121.5 230 100.271 230 83 247.495 83 269 83 278.599 86.4476 287.391 92.1447 294.193 99.2122 302.631 109.746 308 121.5 308ZM121.5 248.572C132.62 248.572 141.667 257.736 141.667 269 141.667 280.265 132.62 289.429 121.5 289.429 110.38 289.429 101.333 280.265 101.333 269 101.333 257.736 110.38 248.572 121.5 248.572Z" fill="#2D5A19" fill-rule="evenodd"/><path d="M383.981 190.25 383.969 189.485C383.91 184.624 380.081 180.647 375.226 180.402 361.528 179.71 349.435 171.525 343.667 159.044 342.521 156.563 340.331 154.719 337.691 154.011 335.051 153.303 332.233 153.805 329.999 155.38 323.824 159.736 316.253 162.135 308.684 162.136 302.271 162.136 295.924 160.429 290.327 157.197 277.933 150.042 270.765 136.198 272.066 121.928 272.313 119.206 271.339 116.514 269.406 114.582 267.472 112.649 264.771 111.678 262.06 111.922 260.96 112.022 259.84 112.073 258.732 112.073 245.589 112.073 233.351 105.017 226.793 93.6591 219.638 81.2659 220.352 65.6929 228.613 53.9839 230.188 51.7507 230.691 48.9329 229.983 46.2927 229.276 43.6525 227.432 41.4626 224.951 40.3162 212.475 34.5496 204.292 22.463 203.597 8.77235 203.35 3.92018 199.376 0.0939651 194.519 0.0312867L193.767 0.019318C193.18 0.00923902 192.59 0 192 0 86.1305 0 0 86.1309 0 192 0 297.869 86.1305 384 192 384 297.87 384 384 297.869 384 192 384 191.415 383.991 190.833 383.981 190.25ZM57.4752 82.4327C61.8264 86.2102 64.4399 91.7271 64.4399 97.7156 64.4399 108.887 55.3517 117.975 44.1804 117.975 41.2842 117.975 38.4691 117.341 35.8823 116.176 41.7824 104.078 49.0455 92.7632 57.4752 82.4327ZM335.909 288.955C330.443 285.257 326.954 278.999 326.954 272.164 326.954 260.992 336.042 251.904 347.213 251.904 349.723 251.904 352.146 252.366 354.419 253.234 349.624 265.911 343.39 277.886 335.909 288.955ZM360.017 235.677C356.272 234.362 352.324 233.627 348.327 233.51 347.956 233.499 347.585 233.486 347.213 233.486 346.713 233.486 346.221 233.512 345.725 233.531 333.437 234 322.602 240.217 315.844 249.577 311.251 255.937 308.534 263.737 308.534 272.163 308.534 284.863 314.841 296.524 324.797 303.651 316.204 313.856 306.439 323.037 295.744 331.038 294.987 331.604 294.239 332.179 293.472 332.734 264.914 353.387 229.858 365.582 191.998 365.582 96.286 365.582 18.4168 287.714 18.4168 192 18.4168 177.012 20.3369 162.465 23.9265 148.582 25.2737 143.373 26.8494 138.255 28.6561 133.245 28.6671 133.216 28.6764 133.185 28.6874 133.155 28.7003 133.16 28.7142 133.165 28.7279 133.171 33.5552 135.277 38.8006 136.393 44.1804 136.393 51.8154 136.393 58.9339 134.16 64.9363 130.326 75.6996 123.451 82.8576 111.407 82.8576 97.7156 82.8576 87.0177 78.499 77.0999 71.1338 69.9611 70.7184 69.5587 70.2994 69.1609 69.8657 68.777 100.008 38.898 141.013 19.962 186.36 18.5069 189.267 32.1019 197.193 44.0578 208.559 52.0436 201.133 68.1544 201.799 87.2019 210.843 102.867 219.841 118.453 235.963 128.638 253.726 130.261 255.348 147.931 265.448 164.101 281.117 173.147 289.51 177.993 299.043 180.554 308.684 180.553 316.807 180.552 324.701 178.806 331.944 175.447 339.934 186.814 351.892 194.737 365.489 197.642 365.071 210.734 363.194 223.466 360.017 235.677Z" fill="#2D5A19" fill-rule="evenodd"/><path d="M227 289C254.569 289 277 266.795 277 239.5 277 227.619 272.747 216.704 265.673 208.164 256.496 197.084 242.569 190 227 190 199.431 190 177 212.205 177 239.5 177 251.629 181.437 262.748 188.779 271.365 197.958 282.139 211.682 289 227 289ZM227 208.333C244.359 208.333 258.482 222.314 258.482 239.5 258.482 256.685 244.359 270.667 227 270.667 209.641 270.667 195.518 256.685 195.518 239.5 195.518 222.314 209.641 208.333 227 208.333Z" fill="#2D5A19" fill-rule="evenodd"/></g></svg>